<?xml version="1.0" standalone="no"?><!DOCTYPE svg PUBLIC "-//W3C//DTD SVG 1.1//EN" "http://www.w3.org/Graphics/SVG/1.1/DTD/svg11.dtd"><svg t="1621180691708" class="icon" viewBox="0 0 1024 1024" version="1.1" xmlns="http://www.w3.org/2000/svg" p-id="4211" xmlns:xlink="http://www.w3.org/1999/xlink" width="200" height="200"><defs><style type="text/css"></style></defs><path d="M935.913978 302.421333c0-37.08972-25.192602-68.987871-61.770322-77.515699L529.474065 145.253849A78.066237 78.066237 0 0 0 512 143.139785c-5.984344 0-11.913634 0.423914-17.892473 2.11957L149.856344 224.900129C113.818151 232.932473 88.13557 265.155441 88.086022 302.421333c0 37.040172 25.137548 68.993376 61.770322 77.471656l70.749591 16.213334v282.321204c0 70.265118 80.510624 132.470366 291.394065 132.470365s291.394065-62.210753 291.394065-132.470365V396.106323l70.744086-16.213334c36.049204-7.982796 61.748301-40.211269 61.775827-77.471656z m-185.321978 376.006194c0 29.40972-79.668301 79.640774-238.592 79.640774s-238.592-50.231054-238.592-79.640774V408.080516l221.11243 51.078882c5.565935 1.271742 11.55028 2.11957 17.47957 2.11957 5.984344 0 11.913634-0.847828 17.842925-2.11957l220.804129-51.078882v270.402065l-0.055054-0.055054z m-232.657204-270.820473c-2.158108 0.423914-3.837247 0.423914-5.98985 0.423914-2.092043 0-3.826237-0.423914-5.978838-0.847828l-344.19613-79.222366c-12.023742-2.510452-20.69471-13.141333-20.832344-25.539441 0-12.343054 8.500301-22.995957 20.46899-25.963355L505.597247 196.817204c2.571011-0.423914 4.250151-0.423914 6.402753-0.423914 2.097548 0 3.831742 0.423914 5.984344 0.847828l344.240172 79.640774c11.913634 2.972903 20.468989 13.620301 20.468989 25.963355-0.099097 12.376086-8.544344 23.089548-20.468989 25.963355L517.92929 407.607054z m338.255828 26.811183v238.443354c0 14.721376 11.820043 26.657032 26.398279 26.657033 14.583742 0 26.39828-11.935656 26.39828-26.657033V434.418237c0-14.721376-11.814538-26.657032-26.39828-26.657033-14.578237 0-26.39828 11.935656-26.398279 26.657033z m26.816688 291.69686c-29.387699 0-52.796559 76.673376-52.796559 106.033548a52.835097 52.835097 0 0 0 26.398279 45.727656 52.642409 52.642409 0 0 0 52.851613 0 52.813075 52.813075 0 0 0 26.39828-45.727656c0-28.936258-23.876817-105.978495-52.851613-105.978494v-0.055054z" fill="#3A3A3A" p-id="4212"></path></svg>